<svg xmlns="http://www.w3.org/2000/svg" xmlns:xlink="http://www.w3.org/1999/xlink" width="1920" zoomAndPan="magnify" viewBox="0 0 1440 809.999993" height="1080" preserveAspectRatio="xMidYMid meet" version="1.0"><defs><g/></defs><g fill="#243010" fill-opacity="1"><g transform="translate(91.818093, 267.342839)"><g><path d="M 5.304688 7.054688 C 5.878906 6.167969 6.167969 1.367188 6.167969 0.792969 C 7.128906 1.054688 7.992188 1.175781 8.785156 1.175781 C 13.65625 1.175781 15.238281 -3.601562 15.238281 -7.921875 C 15.238281 -10.558594 14.664062 -13.054688 13.847656 -14.183594 C 12.601562 -15.910156 10.96875 -16.464844 9.574219 -16.464844 C 8.160156 -16.464844 7.007812 -15.910156 6.695312 -15.382812 C 6.550781 -16.464844 5.519531 -17.230469 4.414062 -17.230469 C 3.40625 -17.230469 2.351562 -16.609375 1.847656 -15 C 1.296875 -13.246094 0.886719 -8.0625 0.886719 -3.023438 C 0.886719 1.128906 1.175781 5.207031 1.871094 7.152344 C 2.136719 7.753906 2.734375 8.039062 3.382812 8.039062 C 4.105469 8.039062 4.871094 7.679688 5.304688 7.054688 Z M 6.742188 -13.414062 C 7.558594 -14.089844 8.257812 -14.398438 8.878906 -14.398438 C 10.753906 -14.398438 11.664062 -11.472656 11.664062 -8.257812 C 11.664062 -4.34375 10.320312 0 7.800781 0 C 7.296875 0 6.769531 -0.167969 6.191406 -0.527344 C 6.191406 -0.550781 6.503906 -13.199219 6.742188 -13.414062 Z M 6.742188 -13.414062 "/></g></g></g><g fill="#243010" fill-opacity="1"><g transform="translate(107.490124, 267.342839)"><g><path d="M 9.457031 7.726562 C 9.527344 7.726562 9.625 7.753906 9.695312 7.753906 C 10.96875 7.753906 11.640625 6.695312 11.976562 5.398438 C 12.214844 4.390625 13.105469 0.9375 13.105469 -2.519531 C 13.105469 -6.648438 11.855469 -10.800781 6.792969 -10.800781 L 6.382812 -10.800781 C 2.542969 -10.800781 0.574219 -8.566406 0.574219 -5.304688 C 0.574219 -5.136719 0.601562 -4.945312 0.601562 -4.777344 C 0.648438 -3.960938 1.367188 -3.503906 2.039062 -3.503906 C 2.640625 -3.503906 3.191406 -3.863281 3.191406 -4.679688 C 3.238281 -8.398438 5.089844 -9.574219 6.238281 -9.625 C 9.382812 -9.527344 8.953125 -5.0625 9.023438 -2.398438 L 9.023438 -2.304688 C 9.023438 -2.160156 9 -2.089844 8.929688 -2.089844 C 8.6875 -2.089844 7.894531 -3.023438 5.953125 -3.023438 C 2.542969 -3.023438 0.695312 0.046875 0.695312 2.496094 C 0.695312 2.953125 0.769531 3.359375 0.886719 3.742188 C 1.488281 5.640625 2.640625 7.320312 5.472656 7.320312 L 5.808594 7.320312 C 7.96875 7.199219 8.449219 5.6875 8.59375 5.6875 C 8.59375 5.6875 8.617188 5.6875 8.617188 5.710938 C 8.664062 5.855469 8.6875 6 8.6875 6.144531 C 8.6875 6.527344 8.542969 6.863281 8.542969 7.152344 C 8.542969 7.464844 8.710938 7.65625 9.457031 7.726562 Z M 6.046875 5.953125 C 4.246094 5.902344 3.886719 4.078125 3.886719 2.617188 C 3.886719 1.800781 4.007812 1.078125 4.03125 0.910156 C 4.199219 -0.0234375 4.777344 -1.609375 6.9375 -1.632812 C 7.847656 -1.632812 9.097656 -0.863281 9.097656 -0.574219 L 9.097656 0.625 C 9.097656 1.152344 9.070312 1.96875 8.878906 3.71875 C 8.832031 4.246094 7.726562 5.953125 6.070312 5.953125 Z M 6.046875 5.953125 "/></g></g></g><g fill="#243010" fill-opacity="1"><g transform="translate(121.290153, 267.342839)"><g><path d="M 0.863281 -7.847656 C 0.71875 -7.246094 0.648438 -5.160156 0.648438 -2.808594 C 0.648438 0.0703125 0.769531 3.382812 0.960938 4.777344 C 1.105469 5.710938 2.039062 6.191406 2.976562 6.191406 C 3.863281 6.191406 4.726562 5.761719 4.871094 4.921875 C 5.375 2.039062 5.734375 -1.246094 5.832031 -4.175781 C 5.832031 -4.390625 5.808594 -4.632812 5.808594 -4.871094 C 5.808594 -5.207031 5.855469 -5.542969 6.023438 -5.855469 C 6.527344 -6.71875 7.609375 -7.390625 8.542969 -7.390625 C 9.046875 -7.390625 9.503906 -7.175781 9.792969 -6.71875 C 10.488281 -5.6875 10.703125 -4.273438 10.703125 -2.734375 C 10.703125 -0.121094 10.078125 2.832031 10.078125 4.585938 C 10.078125 5.328125 10.175781 5.855469 10.488281 6.097656 C 10.726562 6.265625 10.992188 6.359375 11.28125 6.359375 C 11.566406 6.359375 11.855469 6.265625 12.144531 6.121094 C 13.246094 5.710938 14.230469 2.230469 14.230469 -1.246094 C 14.230469 -4.390625 13.414062 -7.535156 11.136719 -8.28125 C 10.464844 -8.566406 9.792969 -8.664062 9.144531 -8.664062 C 7.535156 -8.664062 6.191406 -7.992188 5.761719 -7.871094 C 5.785156 -7.96875 5.785156 -8.0625 5.785156 -8.160156 C 5.785156 -9.191406 4.585938 -9.984375 3.359375 -9.984375 C 2.28125 -9.984375 1.199219 -9.382812 0.863281 -7.847656 Z M 0.863281 -7.847656 "/></g></g></g><g fill="#243010" fill-opacity="1"><g transform="translate(136.098178, 267.342839)"><g><path d="M 7.441406 7.464844 C 12.574219 7.464844 13.441406 2.328125 13.441406 0.527344 C 13.441406 0.382812 13.414062 0.265625 13.414062 0.167969 C 13.34375 -0.457031 12.625 -0.863281 11.878906 -0.863281 C 11.113281 -0.863281 10.320312 -0.40625 10.320312 0.695312 L 10.320312 0.910156 C 10.320312 2.710938 9.503906 5.832031 7.703125 5.855469 L 7.679688 5.855469 C 6.527344 5.855469 6.191406 2.761719 6.191406 -0.625 C 6.191406 -4.609375 6.671875 -8.953125 6.816406 -8.953125 C 7.800781 -8.976562 10.128906 -9.265625 10.558594 -9.550781 C 10.726562 -9.671875 10.800781 -9.816406 10.800781 -9.960938 C 10.800781 -10.296875 10.414062 -10.609375 10.152344 -10.703125 C 9.816406 -10.800781 7.585938 -10.96875 7.128906 -11.039062 C 6.886719 -11.039062 6.792969 -11.089844 6.792969 -11.304688 L 6.792969 -11.398438 C 6.9375 -12.457031 7.246094 -14.089844 7.246094 -15.433594 C 7.246094 -15.960938 7.199219 -16.441406 7.078125 -16.824219 C 6.9375 -17.230469 6.144531 -17.472656 5.398438 -17.472656 C 4.65625 -17.472656 3.960938 -17.257812 3.886719 -16.777344 C 3.71875 -16.464844 3.335938 -11.761719 3.238281 -10.992188 C 1.871094 -10.992188 0.648438 -10.34375 0.648438 -9.910156 L 0.648438 -9.886719 C 0.792969 -9.167969 1.921875 -9 3.023438 -8.878906 C 2.902344 -5.710938 2.761719 -2.953125 2.761719 -0.671875 C 2.761719 4.632812 3.550781 7.464844 7.320312 7.464844 Z M 7.441406 7.464844 "/></g></g></g><g fill="#243010" fill-opacity="1"><g transform="translate(150.234205, 267.342839)"><g><path d="M 11.230469 -4.078125 L 11.28125 -4.078125 C 11.59375 -4.078125 12.601562 -4.34375 12.742188 -5.351562 C 12.769531 -5.472656 12.792969 -5.640625 12.792969 -5.855469 C 12.792969 -7.078125 12.144531 -9.382812 10.007812 -9.816406 C 9.792969 -9.863281 9.574219 -9.886719 9.382812 -9.886719 C 7.800781 -9.886719 6.792969 -8.640625 6.289062 -8.640625 C 6.121094 -8.640625 6 -8.808594 5.976562 -9.265625 C 5.734375 -10.679688 4.777344 -11.328125 3.71875 -11.328125 C 2.328125 -11.328125 0.839844 -10.199219 0.839844 -8.398438 L 0.839844 -7.96875 C 0.839844 -6.289062 0.984375 2.257812 1.777344 4.992188 C 1.945312 5.617188 2.808594 6.023438 3.550781 6.023438 C 4.03125 6.023438 4.464844 5.855469 4.679688 5.472656 C 5.257812 4.632812 5.902344 -0.144531 6.191406 -4.945312 C 6.238281 -6.070312 7.632812 -7.726562 8.808594 -7.726562 C 9.097656 -7.726562 9.359375 -7.632812 9.601562 -7.414062 C 10.609375 -6.480469 10.511719 -5.640625 10.703125 -4.609375 C 10.753906 -4.320312 10.96875 -4.078125 11.230469 -4.078125 Z M 11.230469 -4.078125 "/></g></g></g><g fill="#243010" fill-opacity="1"><g transform="translate(163.386235, 267.342839)"><g><path d="M 9.289062 -9.601562 C 9.214844 -8.039062 9.023438 -4.222656 8.929688 -2.664062 C 8.929688 -2.425781 7.753906 -1.367188 6.601562 -1.367188 C 5.398438 -1.367188 4.175781 -2.472656 4.175781 -6.671875 C 4.175781 -7.585938 4.246094 -8.640625 4.367188 -9.863281 L 4.367188 -10.007812 C 4.367188 -10.871094 3.550781 -11.207031 2.664062 -11.207031 C 1.632812 -11.207031 0.480469 -10.726562 0.433594 -10.007812 C 0.433594 -10.007812 0.3125 -9.121094 0.3125 -7.871094 C 0.3125 -4.847656 0.960938 0.3125 5.398438 0.40625 L 5.472656 0.40625 C 6.886719 0.40625 8.136719 -0.335938 8.640625 -0.886719 C 8.640625 3.3125 8.328125 7.105469 4.992188 7.296875 L 4.777344 7.296875 C 3.433594 7.296875 2.136719 6.433594 2.136719 4.609375 C 2.136719 4.105469 2.230469 3.550781 2.449219 2.902344 C 2.472656 2.855469 2.472656 2.785156 2.472656 2.734375 C 2.472656 2.425781 2.113281 2.257812 1.726562 2.257812 C 1.414062 2.257812 1.078125 2.351562 0.960938 2.59375 C 0.769531 3.335938 0.695312 4.03125 0.695312 4.703125 C 0.695312 7.511719 2.304688 9.625 6 9.695312 L 6.144531 9.695312 C 12.9375 9.695312 14.0625 0.839844 14.0625 -5.015625 C 14.0625 -7.824219 13.800781 -9.910156 13.777344 -10.03125 C 13.609375 -10.894531 12.648438 -11.328125 11.664062 -11.328125 C 10.535156 -11.328125 9.359375 -10.753906 9.289062 -9.601562 Z M 9.289062 -9.601562 "/></g></g></g><g fill="#243010" fill-opacity="1"><g transform="translate(178.602265, 267.342839)"><g><path d="M 5.304688 7.054688 C 5.878906 6.167969 6.167969 1.367188 6.167969 0.792969 C 7.128906 1.054688 7.992188 1.175781 8.785156 1.175781 C 13.65625 1.175781 15.238281 -3.601562 15.238281 -7.921875 C 15.238281 -10.558594 14.664062 -13.054688 13.847656 -14.183594 C 12.601562 -15.910156 10.96875 -16.464844 9.574219 -16.464844 C 8.160156 -16.464844 7.007812 -15.910156 6.695312 -15.382812 C 6.550781 -16.464844 5.519531 -17.230469 4.414062 -17.230469 C 3.40625 -17.230469 2.351562 -16.609375 1.847656 -15 C 1.296875 -13.246094 0.886719 -8.0625 0.886719 -3.023438 C 0.886719 1.128906 1.175781 5.207031 1.871094 7.152344 C 2.136719 7.753906 2.734375 8.039062 3.382812 8.039062 C 4.105469 8.039062 4.871094 7.679688 5.304688 7.054688 Z M 6.742188 -13.414062 C 7.558594 -14.089844 8.257812 -14.398438 8.878906 -14.398438 C 10.753906 -14.398438 11.664062 -11.472656 11.664062 -8.257812 C 11.664062 -4.34375 10.320312 0 7.800781 0 C 7.296875 0 6.769531 -0.167969 6.191406 -0.527344 C 6.191406 -0.550781 6.503906 -13.199219 6.742188 -13.414062 Z M 6.742188 -13.414062 "/></g></g></g><g fill="#243010" fill-opacity="1"><g transform="translate(194.274295, 267.342839)"><g><path d="M 9.457031 7.726562 C 9.527344 7.726562 9.625 7.753906 9.695312 7.753906 C 10.96875 7.753906 11.640625 6.695312 11.976562 5.398438 C 12.214844 4.390625 13.105469 0.9375 13.105469 -2.519531 C 13.105469 -6.648438 11.855469 -10.800781 6.792969 -10.800781 L 6.382812 -10.800781 C 2.542969 -10.800781 0.574219 -8.566406 0.574219 -5.304688 C 0.574219 -5.136719 0.601562 -4.945312 0.601562 -4.777344 C 0.648438 -3.960938 1.367188 -3.503906 2.039062 -3.503906 C 2.640625 -3.503906 3.191406 -3.863281 3.191406 -4.679688 C 3.238281 -8.398438 5.089844 -9.574219 6.238281 -9.625 C 9.382812 -9.527344 8.953125 -5.0625 9.023438 -2.398438 L 9.023438 -2.304688 C 9.023438 -2.160156 9 -2.089844 8.929688 -2.089844 C 8.6875 -2.089844 7.894531 -3.023438 5.953125 -3.023438 C 2.542969 -3.023438 0.695312 0.046875 0.695312 2.496094 C 0.695312 2.953125 0.769531 3.359375 0.886719 3.742188 C 1.488281 5.640625 2.640625 7.320312 5.472656 7.320312 L 5.808594 7.320312 C 7.96875 7.199219 8.449219 5.6875 8.59375 5.6875 C 8.59375 5.6875 8.617188 5.6875 8.617188 5.710938 C 8.664062 5.855469 8.6875 6 8.6875 6.144531 C 8.6875 6.527344 8.542969 6.863281 8.542969 7.152344 C 8.542969 7.464844 8.710938 7.65625 9.457031 7.726562 Z M 6.046875 5.953125 C 4.246094 5.902344 3.886719 4.078125 3.886719 2.617188 C 3.886719 1.800781 4.007812 1.078125 4.03125 0.910156 C 4.199219 -0.0234375 4.777344 -1.609375 6.9375 -1.632812 C 7.847656 -1.632812 9.097656 -0.863281 9.097656 -0.574219 L 9.097656 0.625 C 9.097656 1.152344 9.070312 1.96875 8.878906 3.71875 C 8.832031 4.246094 7.726562 5.953125 6.070312 5.953125 Z M 6.046875 5.953125 "/></g></g></g><g fill="#243010" fill-opacity="1"><g transform="translate(208.074325, 267.342839)"><g><path d="M 0.265625 -16.078125 C 0.382812 -8.351562 0.503906 2.375 1.054688 6.863281 C 1.078125 8.039062 2.039062 8.59375 3 8.59375 C 3.960938 8.59375 4.945312 8.015625 4.945312 6.910156 C 5.113281 3.71875 5.472656 -10.367188 5.6875 -14.855469 L 5.6875 -14.976562 C 5.6875 -17.230469 4.105469 -18.289062 2.640625 -18.289062 C 1.414062 -18.289062 0.265625 -17.519531 0.265625 -16.078125 Z M 0.265625 -16.078125 "/></g></g></g></svg>