<svg xmlns="http://www.w3.org/2000/svg" xmlns:xlink="http://www.w3.org/1999/xlink" width="1920" zoomAndPan="magnify" viewBox="0 0 1440 809.999993" height="1080" preserveAspectRatio="xMidYMid meet" version="1.0"><defs><g/><clipPath id="07923fbd0f"><path d="M 66 126 L 285 126 L 285 263 L 66 263 Z M 66 126 " clip-rule="nonzero"/></clipPath><clipPath id="f8c3e15c7e"><path d="M 49.125 144.816406 L 267.835938 111.984375 L 285.691406 230.933594 L 66.980469 263.765625 Z M 49.125 144.816406 " clip-rule="nonzero"/></clipPath><clipPath id="f73b61350a"><path d="M 49.125 144.816406 L 267.835938 111.984375 L 285.691406 230.933594 L 66.980469 263.765625 Z M 49.125 144.816406 " clip-rule="nonzero"/></clipPath><clipPath id="1bd3b965a3"><path d="M 986.238281 128 L 1207 128 L 1207 248 L 986.238281 248 Z M 986.238281 128 " clip-rule="nonzero"/></clipPath></defs><rect x="-144" width="1728" fill="none" y="-80.999999" height="971.999992" fill-opacity="1"/><rect x="-144" width="1728" fill="none" y="-80.999999" height="971.999992" fill-opacity="1"/><g fill="#243010" fill-opacity="1"><g transform="translate(121.681982, 440.886695)"><g><path d="M 54.871094 72.996094 C 60.828125 63.808594 63.808594 14.152344 63.808594 8.195312 C 73.742188 10.925781 82.679688 12.164062 90.871094 12.164062 C 141.273438 12.164062 157.660156 -37.242188 157.660156 -81.933594 C 157.660156 -109.246094 151.703125 -135.066406 143.261719 -146.734375 C 130.347656 -164.613281 113.464844 -170.324219 99.066406 -170.324219 C 84.417969 -170.324219 72.5 -164.613281 69.269531 -159.148438 C 67.78125 -170.324219 57.105469 -178.269531 45.683594 -178.269531 C 35.257812 -178.269531 24.332031 -171.8125 19.117188 -155.175781 C 13.40625 -137.054688 9.1875 -83.421875 9.1875 -31.285156 C 9.1875 11.667969 12.164062 53.878906 19.367188 73.988281 C 22.097656 80.195312 28.304688 83.175781 35.007812 83.175781 C 42.457031 83.175781 50.402344 79.449219 54.871094 72.996094 Z M 69.769531 -138.789062 C 78.210938 -145.742188 85.410156 -148.96875 91.863281 -148.96875 C 111.230469 -148.96875 120.664062 -118.679688 120.664062 -85.410156 C 120.664062 -44.9375 106.761719 0 80.691406 0 C 75.476562 0 70.015625 -1.738281 64.058594 -5.460938 C 64.058594 -5.710938 67.285156 -136.554688 69.769531 -138.789062 Z M 69.769531 -138.789062 "/></g></g></g><g fill="#243010" fill-opacity="1"><g transform="translate(283.797207, 440.886695)"><g><path d="M 97.824219 79.949219 C 98.570312 79.949219 99.5625 80.195312 100.308594 80.195312 C 113.464844 80.195312 120.417969 69.269531 123.894531 55.863281 C 126.375 45.4375 135.5625 9.683594 135.5625 -26.070312 C 135.5625 -68.773438 122.652344 -111.726562 70.265625 -111.726562 L 66.042969 -111.726562 C 26.316406 -111.726562 5.957031 -88.636719 5.957031 -54.871094 C 5.957031 -53.132812 6.207031 -51.148438 6.207031 -49.410156 C 6.703125 -40.96875 14.152344 -36.25 21.105469 -36.25 C 27.3125 -36.25 33.023438 -39.972656 33.023438 -48.414062 C 33.519531 -86.898438 52.636719 -99.066406 64.554688 -99.5625 C 97.078125 -98.570312 92.609375 -52.386719 93.355469 -24.828125 L 93.355469 -23.835938 C 93.355469 -22.34375 93.105469 -21.601562 92.363281 -21.601562 C 89.878906 -21.601562 81.683594 -31.285156 61.574219 -31.285156 C 26.316406 -31.285156 7.199219 0.496094 7.199219 25.820312 C 7.199219 30.539062 7.945312 34.757812 9.1875 38.730469 C 15.394531 58.347656 27.3125 75.726562 56.609375 75.726562 L 60.085938 75.726562 C 82.429688 74.484375 87.394531 58.84375 88.886719 58.84375 C 88.886719 58.84375 89.132812 58.84375 89.132812 59.089844 C 89.628906 60.582031 89.878906 62.070312 89.878906 63.5625 C 89.878906 67.535156 88.390625 71.007812 88.390625 73.988281 C 88.390625 77.214844 90.128906 79.203125 97.824219 79.949219 Z M 62.566406 61.574219 C 43.945312 61.078125 40.222656 42.207031 40.222656 27.0625 C 40.222656 18.621094 41.464844 11.171875 41.710938 9.433594 C 43.449219 -0.25 49.410156 -16.636719 71.753906 -16.882812 C 81.1875 -16.882812 94.101562 -8.9375 94.101562 -5.957031 L 94.101562 6.457031 C 94.101562 11.917969 93.851562 20.359375 91.863281 38.484375 C 91.367188 43.945312 79.949219 61.574219 62.816406 61.574219 Z M 62.566406 61.574219 "/></g></g></g><g fill="#243010" fill-opacity="1"><g transform="translate(426.547977, 440.886695)"><g><path d="M 8.9375 -81.1875 C 7.449219 -74.980469 6.703125 -53.382812 6.703125 -29.050781 C 6.703125 0.746094 7.945312 35.007812 9.929688 49.410156 C 11.421875 59.089844 21.105469 64.058594 30.789062 64.058594 C 39.972656 64.058594 48.910156 59.589844 50.402344 50.898438 C 55.617188 21.105469 59.339844 -12.910156 60.332031 -43.203125 C 60.332031 -45.4375 60.085938 -47.917969 60.085938 -50.402344 C 60.085938 -53.878906 60.582031 -57.355469 62.320312 -60.582031 C 67.535156 -69.519531 78.707031 -76.472656 88.390625 -76.472656 C 93.601562 -76.472656 98.320312 -74.238281 101.300781 -69.519531 C 108.5 -58.84375 110.734375 -44.195312 110.734375 -28.304688 C 110.734375 -1.242188 104.277344 29.296875 104.277344 47.421875 C 104.277344 55.117188 105.273438 60.582031 108.5 63.0625 C 110.984375 64.800781 113.714844 65.796875 116.695312 65.796875 C 119.671875 65.796875 122.652344 64.800781 125.632812 63.3125 C 137.054688 59.089844 147.230469 23.089844 147.230469 -12.910156 C 147.230469 -45.4375 138.789062 -77.960938 115.203125 -85.65625 C 108.25 -88.636719 101.300781 -89.628906 94.597656 -89.628906 C 77.960938 -89.628906 64.058594 -82.679688 59.589844 -81.4375 C 59.835938 -82.429688 59.835938 -83.421875 59.835938 -84.417969 C 59.835938 -95.09375 47.421875 -103.285156 34.757812 -103.285156 C 23.585938 -103.285156 12.414062 -97.078125 8.9375 -81.1875 Z M 8.9375 -81.1875 "/></g></g></g><g fill="#243010" fill-opacity="1"><g transform="translate(579.725769, 440.886695)"><g><path d="M 76.96875 77.214844 C 130.101562 77.214844 139.039062 24.082031 139.039062 5.460938 C 139.039062 3.972656 138.789062 2.730469 138.789062 1.738281 C 138.046875 -4.71875 130.597656 -8.9375 122.902344 -8.9375 C 114.957031 -8.9375 106.761719 -4.222656 106.761719 7.199219 L 106.761719 9.433594 C 106.761719 28.054688 98.320312 60.332031 79.699219 60.582031 L 79.449219 60.582031 C 67.535156 60.582031 64.058594 28.550781 64.058594 -6.457031 C 64.058594 -47.671875 69.023438 -92.609375 70.511719 -92.609375 C 80.691406 -92.859375 104.777344 -95.835938 109.246094 -98.816406 C 110.984375 -100.058594 111.726562 -101.546875 111.726562 -103.039062 C 111.726562 -106.515625 107.753906 -109.742188 105.023438 -110.734375 C 101.546875 -111.726562 78.457031 -113.464844 73.742188 -114.210938 C 71.257812 -114.210938 70.265625 -114.707031 70.265625 -116.941406 L 70.265625 -117.933594 C 71.753906 -128.859375 74.980469 -145.742188 74.980469 -159.648438 C 74.980469 -165.109375 74.484375 -170.074219 73.242188 -174.046875 C 71.753906 -178.269531 63.5625 -180.75 55.863281 -180.75 C 48.167969 -180.75 40.96875 -178.515625 40.222656 -173.550781 C 38.484375 -170.324219 34.511719 -121.660156 33.519531 -113.714844 C 19.367188 -113.714844 6.703125 -107.011719 6.703125 -102.542969 L 6.703125 -102.292969 C 8.195312 -94.84375 19.863281 -93.105469 31.285156 -91.863281 C 30.042969 -59.089844 28.550781 -30.539062 28.550781 -6.953125 C 28.550781 47.917969 36.746094 77.214844 75.726562 77.214844 Z M 76.96875 77.214844 "/></g></g></g><g fill="#243010" fill-opacity="1"><g transform="translate(725.952212, 440.886695)"><g><path d="M 116.195312 -42.207031 L 116.695312 -42.207031 C 119.921875 -42.207031 130.347656 -44.9375 131.839844 -55.367188 C 132.085938 -56.609375 132.335938 -58.347656 132.335938 -60.582031 C 132.335938 -73.242188 125.632812 -97.078125 103.535156 -101.546875 C 101.300781 -102.042969 99.066406 -102.292969 97.078125 -102.292969 C 80.691406 -102.292969 70.265625 -89.382812 65.050781 -89.382812 C 63.3125 -89.382812 62.070312 -91.121094 61.824219 -95.835938 C 59.339844 -110.488281 49.410156 -117.191406 38.484375 -117.191406 C 24.082031 -117.191406 8.691406 -105.519531 8.691406 -86.898438 L 8.691406 -82.429688 C 8.691406 -65.050781 10.179688 23.339844 18.371094 51.644531 C 20.109375 58.097656 29.050781 62.320312 36.746094 62.320312 C 41.710938 62.320312 46.179688 60.582031 48.414062 56.609375 C 54.375 47.917969 61.078125 -1.488281 64.058594 -51.148438 C 64.554688 -62.816406 78.953125 -79.949219 91.121094 -79.949219 C 94.101562 -79.949219 96.832031 -78.953125 99.3125 -76.71875 C 109.742188 -67.035156 108.75 -58.347656 110.734375 -47.671875 C 111.230469 -44.691406 113.464844 -42.207031 116.195312 -42.207031 Z M 116.195312 -42.207031 "/></g></g></g><g fill="#243010" fill-opacity="1"><g transform="translate(861.999879, 440.886695)"><g><path d="M 96.085938 -99.3125 C 95.339844 -83.175781 93.355469 -43.699219 92.363281 -27.558594 C 92.363281 -25.078125 80.195312 -14.152344 68.277344 -14.152344 C 55.863281 -14.152344 43.203125 -25.574219 43.203125 -69.023438 C 43.203125 -78.457031 43.945312 -89.382812 45.1875 -102.042969 L 45.1875 -103.535156 C 45.1875 -112.472656 36.746094 -115.949219 27.558594 -115.949219 C 16.882812 -115.949219 4.964844 -110.984375 4.46875 -103.535156 C 4.46875 -103.535156 3.226562 -94.347656 3.226562 -81.4375 C 3.226562 -50.152344 9.929688 3.226562 55.863281 4.222656 L 56.609375 4.222656 C 71.257812 4.222656 84.167969 -3.476562 89.382812 -9.1875 C 89.382812 34.261719 86.15625 73.492188 51.644531 75.476562 L 49.410156 75.476562 C 35.503906 75.476562 22.097656 66.539062 22.097656 47.671875 C 22.097656 42.457031 23.089844 36.746094 25.324219 30.042969 C 25.574219 29.546875 25.574219 28.800781 25.574219 28.304688 C 25.574219 25.078125 21.847656 23.339844 17.875 23.339844 C 14.648438 23.339844 11.171875 24.332031 9.929688 26.816406 C 7.945312 34.511719 7.199219 41.710938 7.199219 48.664062 C 7.199219 77.710938 23.835938 99.5625 62.070312 100.308594 L 63.5625 100.308594 C 133.824219 100.308594 145.496094 8.691406 145.496094 -51.890625 C 145.496094 -80.941406 142.761719 -102.542969 142.515625 -103.78125 C 140.777344 -112.722656 130.84375 -117.191406 120.664062 -117.191406 C 108.996094 -117.191406 96.832031 -111.230469 96.085938 -99.3125 Z M 96.085938 -99.3125 "/></g></g></g><g fill="#243010" fill-opacity="1"><g transform="translate(1019.398082, 440.886695)"><g><path d="M 54.871094 72.996094 C 60.828125 63.808594 63.808594 14.152344 63.808594 8.195312 C 73.742188 10.925781 82.679688 12.164062 90.871094 12.164062 C 141.273438 12.164062 157.660156 -37.242188 157.660156 -81.933594 C 157.660156 -109.246094 151.703125 -135.066406 143.261719 -146.734375 C 130.347656 -164.613281 113.464844 -170.324219 99.066406 -170.324219 C 84.417969 -170.324219 72.5 -164.613281 69.269531 -159.148438 C 67.78125 -170.324219 57.105469 -178.269531 45.683594 -178.269531 C 35.257812 -178.269531 24.332031 -171.8125 19.117188 -155.175781 C 13.40625 -137.054688 9.1875 -83.421875 9.1875 -31.285156 C 9.1875 11.667969 12.164062 53.878906 19.367188 73.988281 C 22.097656 80.195312 28.304688 83.175781 35.007812 83.175781 C 42.457031 83.175781 50.402344 79.449219 54.871094 72.996094 Z M 69.769531 -138.789062 C 78.210938 -145.742188 85.410156 -148.96875 91.863281 -148.96875 C 111.230469 -148.96875 120.664062 -118.679688 120.664062 -85.410156 C 120.664062 -44.9375 106.761719 0 80.691406 0 C 75.476562 0 70.015625 -1.738281 64.058594 -5.460938 C 64.058594 -5.710938 67.285156 -136.554688 69.769531 -138.789062 Z M 69.769531 -138.789062 "/></g></g></g><g fill="#243010" fill-opacity="1"><g transform="translate(1181.513365, 440.886695)"><g><path d="M 97.824219 79.949219 C 98.570312 79.949219 99.5625 80.195312 100.308594 80.195312 C 113.464844 80.195312 120.417969 69.269531 123.894531 55.863281 C 126.375 45.4375 135.5625 9.683594 135.5625 -26.070312 C 135.5625 -68.773438 122.652344 -111.726562 70.265625 -111.726562 L 66.042969 -111.726562 C 26.316406 -111.726562 5.957031 -88.636719 5.957031 -54.871094 C 5.957031 -53.132812 6.207031 -51.148438 6.207031 -49.410156 C 6.703125 -40.96875 14.152344 -36.25 21.105469 -36.25 C 27.3125 -36.25 33.023438 -39.972656 33.023438 -48.414062 C 33.519531 -86.898438 52.636719 -99.066406 64.554688 -99.5625 C 97.078125 -98.570312 92.609375 -52.386719 93.355469 -24.828125 L 93.355469 -23.835938 C 93.355469 -22.34375 93.105469 -21.601562 92.363281 -21.601562 C 89.878906 -21.601562 81.683594 -31.285156 61.574219 -31.285156 C 26.316406 -31.285156 7.199219 0.496094 7.199219 25.820312 C 7.199219 30.539062 7.945312 34.757812 9.1875 38.730469 C 15.394531 58.347656 27.3125 75.726562 56.609375 75.726562 L 60.085938 75.726562 C 82.429688 74.484375 87.394531 58.84375 88.886719 58.84375 C 88.886719 58.84375 89.132812 58.84375 89.132812 59.089844 C 89.628906 60.582031 89.878906 62.070312 89.878906 63.5625 C 89.878906 67.535156 88.390625 71.007812 88.390625 73.988281 C 88.390625 77.214844 90.128906 79.203125 97.824219 79.949219 Z M 62.566406 61.574219 C 43.945312 61.078125 40.222656 42.207031 40.222656 27.0625 C 40.222656 18.621094 41.464844 11.171875 41.710938 9.433594 C 43.449219 -0.25 49.410156 -16.636719 71.753906 -16.882812 C 81.1875 -16.882812 94.101562 -8.9375 94.101562 -5.957031 L 94.101562 6.457031 C 94.101562 11.917969 93.851562 20.359375 91.863281 38.484375 C 91.367188 43.945312 79.949219 61.574219 62.816406 61.574219 Z M 62.566406 61.574219 "/></g></g></g><g fill="#243010" fill-opacity="1"><g transform="translate(1324.264077, 440.886695)"><g><path d="M 2.730469 -166.351562 C 3.972656 -86.402344 5.214844 24.582031 10.925781 71.007812 C 11.171875 83.175781 21.105469 88.886719 31.035156 88.886719 C 40.96875 88.886719 51.148438 82.925781 51.148438 71.503906 C 52.882812 38.484375 56.609375 -107.257812 58.84375 -153.6875 L 58.84375 -154.929688 C 58.84375 -178.269531 42.457031 -189.191406 27.3125 -189.191406 C 14.648438 -189.191406 2.730469 -181.246094 2.730469 -166.351562 Z M 2.730469 -166.351562 "/></g></g></g><g clip-path="url(#07923fbd0f)"><g clip-path="url(#f8c3e15c7e)"><g clip-path="url(#f73b61350a)"><path fill="#243010" d="M 277.535156 220.9375 L 266.191406 222.640625 C 258.980469 174.585938 216.355469 140.703125 168.871094 143.558594 L 167.929688 137.289062 C 167.886719 136.992188 167.796875 136.394531 167.75 136.097656 L 175.808594 134.886719 C 178.195312 134.527344 179.71875 132.46875 179.359375 130.082031 C 179 127.691406 176.941406 126.171875 174.554688 126.53125 L 141.425781 131.503906 C 139.039062 131.859375 137.515625 133.921875 137.875 136.308594 C 138.234375 138.695312 140.292969 140.21875 142.679688 139.859375 L 150.738281 138.648438 C 150.785156 138.949219 150.875 139.542969 150.917969 139.84375 L 151.859375 146.109375 C 105.628906 157.324219 74.832031 202.230469 82.046875 250.28125 L 70.703125 251.984375 C 67.71875 252.429688 65.691406 255.175781 66.136719 258.160156 C 66.585938 261.144531 69.332031 263.175781 72.316406 262.726562 L 279.445312 231.636719 C 282.429688 231.1875 284.457031 228.441406 284.011719 225.457031 C 283.265625 222.519531 280.519531 220.488281 277.535156 220.9375 Z M 277.535156 220.9375 " fill-opacity="1" fill-rule="nonzero"/></g></g></g><g clip-path="url(#1bd3b965a3)"><path fill="#243010" d="M 1200.816406 236.980469 L 1189.347656 236.980469 C 1189.347656 188.390625 1152.226562 148.550781 1104.84375 144.328125 L 1104.84375 137.988281 C 1104.84375 137.6875 1104.84375 137.082031 1104.84375 136.78125 L 1112.992188 136.78125 C 1115.40625 136.78125 1117.21875 134.972656 1117.21875 132.554688 C 1117.21875 130.140625 1115.40625 128.332031 1112.992188 128.332031 L 1079.492188 128.332031 C 1077.078125 128.332031 1075.269531 130.140625 1075.269531 132.554688 C 1075.269531 134.972656 1077.078125 136.78125 1079.492188 136.78125 L 1087.640625 136.78125 C 1087.640625 137.082031 1087.640625 137.6875 1087.640625 137.988281 L 1087.640625 144.328125 C 1040.261719 148.550781 1003.136719 188.390625 1003.136719 236.980469 L 991.671875 236.980469 C 988.652344 236.980469 986.238281 239.394531 986.238281 242.410156 C 986.238281 245.429688 988.652344 247.84375 991.671875 247.84375 L 1201.117188 247.84375 C 1204.136719 247.84375 1206.550781 245.429688 1206.550781 242.410156 C 1206.25 239.394531 1203.835938 236.980469 1200.816406 236.980469 Z M 1200.816406 236.980469 " fill-opacity="1" fill-rule="nonzero"/></g><g fill="#243010" fill-opacity="1"><g transform="translate(314.297267, 674.108726)"><g><path d="M 5.140625 0 L 5.140625 -47.78125 L 18.75 -47.78125 L 40.1875 -13.90625 L 40.90625 -13.90625 L 40.265625 -47.78125 L 50.46875 -47.78125 L 50.46875 0 L 38.078125 0 L 15.421875 -35.328125 L 14.703125 -35.328125 L 15.28125 0 Z M 5.140625 0 "/></g></g></g><g fill="#243010" fill-opacity="1"><g transform="translate(369.890529, 674.108726)"><g><path d="M 22.296875 1.015625 C 19.160156 1.015625 16.375 0.582031 13.9375 -0.28125 C 11.5 -1.15625 9.4375 -2.425781 7.75 -4.09375 C 6.0625 -5.757812 4.78125 -7.785156 3.90625 -10.171875 C 3.039062 -12.554688 2.609375 -15.269531 2.609375 -18.3125 C 2.609375 -21.3125 3.03125 -24.078125 3.875 -26.609375 C 4.71875 -29.140625 5.945312 -31.332031 7.5625 -33.1875 C 9.175781 -35.050781 11.164062 -36.488281 13.53125 -37.5 C 15.90625 -38.519531 18.585938 -39.03125 21.578125 -39.03125 C 24.523438 -39.03125 27.117188 -38.546875 29.359375 -37.578125 C 31.609375 -36.609375 33.476562 -35.179688 34.96875 -33.296875 C 36.46875 -31.421875 37.566406 -29.128906 38.265625 -26.421875 C 38.960938 -23.722656 39.191406 -20.613281 38.953125 -17.09375 L 9.34375 -16.875 L 9.34375 -22.59375 L 32.796875 -22.8125 L 29.328125 -19.84375 C 29.660156 -22.394531 29.5 -24.488281 28.84375 -26.125 C 28.195312 -27.769531 27.234375 -28.976562 25.953125 -29.75 C 24.671875 -30.53125 23.238281 -30.921875 21.65625 -30.921875 C 19.8125 -30.921875 18.203125 -30.4375 16.828125 -29.46875 C 15.453125 -28.5 14.390625 -27.085938 13.640625 -25.234375 C 12.898438 -23.378906 12.53125 -21.144531 12.53125 -18.53125 C 12.53125 -14.425781 13.421875 -11.421875 15.203125 -9.515625 C 16.992188 -7.609375 19.359375 -6.65625 22.296875 -6.65625 C 23.648438 -6.65625 24.796875 -6.835938 25.734375 -7.203125 C 26.679688 -7.566406 27.457031 -8.035156 28.0625 -8.609375 C 28.664062 -9.191406 29.132812 -9.84375 29.46875 -10.5625 C 29.800781 -11.289062 30.066406 -12.039062 30.265625 -12.8125 L 39.390625 -10.9375 C 39.046875 -9.144531 38.453125 -7.523438 37.609375 -6.078125 C 36.765625 -4.628906 35.65625 -3.375 34.28125 -2.3125 C 32.90625 -1.25 31.226562 -0.429688 29.25 0.140625 C 27.269531 0.722656 24.953125 1.015625 22.296875 1.015625 Z M 22.296875 1.015625 "/></g></g></g><g fill="#243010" fill-opacity="1"><g transform="translate(411.657884, 674.108726)"><g><path d="M 10.5 0 L 1.09375 -38.015625 L 11.953125 -38.015625 L 17.3125 -8.328125 L 18.53125 -8.328125 L 24.90625 -38.015625 L 37.296875 -38.015625 L 43.8125 -8.328125 L 45.109375 -8.328125 L 50.390625 -38.015625 L 60.96875 -38.015625 L 51.546875 0 L 37.21875 0 L 31.421875 -29.328125 L 30.265625 -29.328125 L 24.625 0 Z M 10.5 0 "/></g></g></g><g fill="#243010" fill-opacity="1"><g transform="translate(473.693571, 674.108726)"><g/></g></g><g fill="#243010" fill-opacity="1"><g transform="translate(490.197843, 674.108726)"><g><path d="M 4.640625 0 L 4.640625 -38.015625 L 13.328125 -38.015625 L 13.25 -24.828125 L 14.625 -24.828125 C 15.007812 -28.117188 15.660156 -30.800781 16.578125 -32.875 C 17.492188 -34.945312 18.785156 -36.460938 20.453125 -37.421875 C 22.117188 -38.390625 24.179688 -38.875 26.640625 -38.875 C 27.128906 -38.875 27.640625 -38.847656 28.171875 -38.796875 C 28.703125 -38.753906 29.300781 -38.660156 29.96875 -38.515625 L 29.609375 -27.4375 C 28.796875 -27.78125 27.960938 -28.023438 27.109375 -28.171875 C 26.265625 -28.316406 25.484375 -28.390625 24.765625 -28.390625 C 22.929688 -28.390625 21.335938 -27.953125 19.984375 -27.078125 C 18.628906 -26.210938 17.550781 -24.957031 16.75 -23.3125 C 15.957031 -21.675781 15.394531 -19.648438 15.0625 -17.234375 L 15.0625 0 Z M 4.640625 0 "/></g></g></g><g fill="#243010" fill-opacity="1"><g transform="translate(521.324268, 674.108726)"><g><path d="M 22.296875 1.015625 C 19.160156 1.015625 16.375 0.582031 13.9375 -0.28125 C 11.5 -1.15625 9.4375 -2.425781 7.75 -4.09375 C 6.0625 -5.757812 4.78125 -7.785156 3.90625 -10.171875 C 3.039062 -12.554688 2.609375 -15.269531 2.609375 -18.3125 C 2.609375 -21.3125 3.03125 -24.078125 3.875 -26.609375 C 4.71875 -29.140625 5.945312 -31.332031 7.5625 -33.1875 C 9.175781 -35.050781 11.164062 -36.488281 13.53125 -37.5 C 15.90625 -38.519531 18.585938 -39.03125 21.578125 -39.03125 C 24.523438 -39.03125 27.117188 -38.546875 29.359375 -37.578125 C 31.609375 -36.609375 33.476562 -35.179688 34.96875 -33.296875 C 36.46875 -31.421875 37.566406 -29.128906 38.265625 -26.421875 C 38.960938 -23.722656 39.191406 -20.613281 38.953125 -17.09375 L 9.34375 -16.875 L 9.34375 -22.59375 L 32.796875 -22.8125 L 29.328125 -19.84375 C 29.660156 -22.394531 29.5 -24.488281 28.84375 -26.125 C 28.195312 -27.769531 27.234375 -28.976562 25.953125 -29.75 C 24.671875 -30.53125 23.238281 -30.921875 21.65625 -30.921875 C 19.8125 -30.921875 18.203125 -30.4375 16.828125 -29.46875 C 15.453125 -28.5 14.390625 -27.085938 13.640625 -25.234375 C 12.898438 -23.378906 12.53125 -21.144531 12.53125 -18.53125 C 12.53125 -14.425781 13.421875 -11.421875 15.203125 -9.515625 C 16.992188 -7.609375 19.359375 -6.65625 22.296875 -6.65625 C 23.648438 -6.65625 24.796875 -6.835938 25.734375 -7.203125 C 26.679688 -7.566406 27.457031 -8.035156 28.0625 -8.609375 C 28.664062 -9.191406 29.132812 -9.84375 29.46875 -10.5625 C 29.800781 -11.289062 30.066406 -12.039062 30.265625 -12.8125 L 39.390625 -10.9375 C 39.046875 -9.144531 38.453125 -7.523438 37.609375 -6.078125 C 36.765625 -4.628906 35.65625 -3.375 34.28125 -2.3125 C 32.90625 -1.25 31.226562 -0.429688 29.25 0.140625 C 27.269531 0.722656 24.953125 1.015625 22.296875 1.015625 Z M 22.296875 1.015625 "/></g></g></g><g fill="#243010" fill-opacity="1"><g transform="translate(563.091623, 674.108726)"><g><path d="M 22.234375 1.015625 C 18.953125 1.015625 16.078125 0.535156 13.609375 -0.421875 C 11.148438 -1.390625 9.109375 -2.742188 7.484375 -4.484375 C 5.867188 -6.222656 4.648438 -8.285156 3.828125 -10.671875 C 3.015625 -13.066406 2.609375 -15.6875 2.609375 -18.53125 C 2.609375 -21.53125 3.015625 -24.269531 3.828125 -26.75 C 4.648438 -29.238281 5.878906 -31.398438 7.515625 -33.234375 C 9.160156 -35.066406 11.191406 -36.488281 13.609375 -37.5 C 16.023438 -38.519531 18.773438 -39.03125 21.859375 -39.03125 C 24.234375 -39.03125 26.359375 -38.726562 28.234375 -38.125 C 30.117188 -37.519531 31.757812 -36.671875 33.15625 -35.578125 C 34.5625 -34.492188 35.707031 -33.191406 36.59375 -31.671875 C 37.488281 -30.148438 38.082031 -28.453125 38.375 -26.578125 L 28.8125 -23.671875 C 28.664062 -25.222656 28.265625 -26.539062 27.609375 -27.625 C 26.960938 -28.707031 26.109375 -29.515625 25.046875 -30.046875 C 23.984375 -30.578125 22.753906 -30.84375 21.359375 -30.84375 C 20.203125 -30.84375 19.128906 -30.613281 18.140625 -30.15625 C 17.148438 -29.695312 16.28125 -28.992188 15.53125 -28.046875 C 14.78125 -27.109375 14.1875 -25.890625 13.75 -24.390625 C 13.320312 -22.898438 13.109375 -21.09375 13.109375 -18.96875 C 13.109375 -16.125 13.476562 -13.804688 14.21875 -12.015625 C 14.96875 -10.234375 16.039062 -8.921875 17.4375 -8.078125 C 18.84375 -7.234375 20.488281 -6.8125 22.375 -6.8125 C 24.257812 -6.8125 25.765625 -7.195312 26.890625 -7.96875 C 28.023438 -8.738281 28.867188 -9.710938 29.421875 -10.890625 C 29.984375 -12.078125 30.3125 -13.320312 30.40625 -14.625 L 39.609375 -12.671875 C 39.410156 -10.785156 38.925781 -9.007812 38.15625 -7.34375 C 37.382812 -5.675781 36.285156 -4.21875 34.859375 -2.96875 C 33.441406 -1.71875 31.679688 -0.738281 29.578125 -0.03125 C 27.472656 0.664062 25.023438 1.015625 22.234375 1.015625 Z M 22.234375 1.015625 "/></g></g></g><g fill="#243010" fill-opacity="1"><g transform="translate(603.84551, 674.108726)"><g><path d="M 4.640625 0 L 4.640625 -38.015625 L 15.0625 -38.015625 L 15.0625 0 Z M 9.84375 -43.515625 C 7.8125 -43.515625 6.253906 -43.945312 5.171875 -44.8125 C 4.085938 -45.6875 3.546875 -46.921875 3.546875 -48.515625 C 3.546875 -50.203125 4.085938 -51.476562 5.171875 -52.34375 C 6.253906 -53.21875 7.8125 -53.65625 9.84375 -53.65625 C 11.914062 -53.65625 13.492188 -53.21875 14.578125 -52.34375 C 15.671875 -51.476562 16.21875 -50.203125 16.21875 -48.515625 C 16.21875 -46.921875 15.671875 -45.6875 14.578125 -44.8125 C 13.492188 -43.945312 11.914062 -43.515625 9.84375 -43.515625 Z M 9.84375 -43.515625 "/></g></g></g><g fill="#243010" fill-opacity="1"><g transform="translate(623.534821, 674.108726)"><g><path d="M 4.640625 12.015625 L 4.640625 -38.015625 L 13.328125 -38.015625 L 13.328125 -27.375 L 14.546875 -27.21875 C 15.035156 -29.832031 15.820312 -32.019531 16.90625 -33.78125 C 17.988281 -35.539062 19.382812 -36.851562 21.09375 -37.71875 C 22.8125 -38.59375 24.832031 -39.03125 27.15625 -39.03125 C 30.476562 -39.03125 33.320312 -38.207031 35.6875 -36.5625 C 38.0625 -34.925781 39.882812 -32.597656 41.15625 -29.578125 C 42.4375 -26.554688 43.078125 -22.972656 43.078125 -18.828125 C 43.078125 -14.960938 42.5 -11.546875 41.34375 -8.578125 C 40.1875 -5.609375 38.472656 -3.265625 36.203125 -1.546875 C 33.929688 0.160156 31.109375 1.015625 27.734375 1.015625 C 25.316406 1.015625 23.273438 0.554688 21.609375 -0.359375 C 19.941406 -1.273438 18.550781 -2.585938 17.4375 -4.296875 C 16.332031 -6.015625 15.441406 -8.054688 14.765625 -10.421875 L 13.46875 -10.421875 C 13.757812 -9.078125 14.023438 -7.710938 14.265625 -6.328125 C 14.503906 -4.953125 14.695312 -3.613281 14.84375 -2.3125 C 14.988281 -1.007812 15.0625 0.242188 15.0625 1.453125 L 15.0625 12.015625 Z M 24.109375 -7.390625 C 25.796875 -7.390625 27.242188 -7.867188 28.453125 -8.828125 C 29.660156 -9.796875 30.585938 -11.132812 31.234375 -12.84375 C 31.890625 -14.5625 32.21875 -16.53125 32.21875 -18.75 C 32.21875 -21.164062 31.878906 -23.226562 31.203125 -24.9375 C 30.523438 -26.65625 29.554688 -27.984375 28.296875 -28.921875 C 27.046875 -29.867188 25.578125 -30.34375 23.890625 -30.34375 C 22.347656 -30.34375 21.03125 -30.015625 19.9375 -29.359375 C 18.851562 -28.710938 17.9375 -27.832031 17.1875 -26.71875 C 16.445312 -25.601562 15.90625 -24.414062 15.5625 -23.15625 C 15.226562 -21.90625 15.0625 -20.679688 15.0625 -19.484375 L 15.0625 -18.171875 C 15.0625 -17.160156 15.179688 -16.160156 15.421875 -15.171875 C 15.660156 -14.179688 16.035156 -13.226562 16.546875 -12.3125 C 17.054688 -11.394531 17.671875 -10.5625 18.390625 -9.8125 C 19.117188 -9.0625 19.960938 -8.46875 20.921875 -8.03125 C 21.890625 -7.601562 22.953125 -7.390625 24.109375 -7.390625 Z M 24.109375 -7.390625 "/></g></g></g><g fill="#243010" fill-opacity="1"><g transform="translate(669.283458, 674.108726)"><g><path d="M 22.296875 1.015625 C 19.160156 1.015625 16.375 0.582031 13.9375 -0.28125 C 11.5 -1.15625 9.4375 -2.425781 7.75 -4.09375 C 6.0625 -5.757812 4.78125 -7.785156 3.90625 -10.171875 C 3.039062 -12.554688 2.609375 -15.269531 2.609375 -18.3125 C 2.609375 -21.3125 3.03125 -24.078125 3.875 -26.609375 C 4.71875 -29.140625 5.945312 -31.332031 7.5625 -33.1875 C 9.175781 -35.050781 11.164062 -36.488281 13.53125 -37.5 C 15.90625 -38.519531 18.585938 -39.03125 21.578125 -39.03125 C 24.523438 -39.03125 27.117188 -38.546875 29.359375 -37.578125 C 31.609375 -36.609375 33.476562 -35.179688 34.96875 -33.296875 C 36.46875 -31.421875 37.566406 -29.128906 38.265625 -26.421875 C 38.960938 -23.722656 39.191406 -20.613281 38.953125 -17.09375 L 9.34375 -16.875 L 9.34375 -22.59375 L 32.796875 -22.8125 L 29.328125 -19.84375 C 29.660156 -22.394531 29.5 -24.488281 28.84375 -26.125 C 28.195312 -27.769531 27.234375 -28.976562 25.953125 -29.75 C 24.671875 -30.53125 23.238281 -30.921875 21.65625 -30.921875 C 19.8125 -30.921875 18.203125 -30.4375 16.828125 -29.46875 C 15.453125 -28.5 14.390625 -27.085938 13.640625 -25.234375 C 12.898438 -23.378906 12.53125 -21.144531 12.53125 -18.53125 C 12.53125 -14.425781 13.421875 -11.421875 15.203125 -9.515625 C 16.992188 -7.609375 19.359375 -6.65625 22.296875 -6.65625 C 23.648438 -6.65625 24.796875 -6.835938 25.734375 -7.203125 C 26.679688 -7.566406 27.457031 -8.035156 28.0625 -8.609375 C 28.664062 -9.191406 29.132812 -9.84375 29.46875 -10.5625 C 29.800781 -11.289062 30.066406 -12.039062 30.265625 -12.8125 L 39.390625 -10.9375 C 39.046875 -9.144531 38.453125 -7.523438 37.609375 -6.078125 C 36.765625 -4.628906 35.65625 -3.375 34.28125 -2.3125 C 32.90625 -1.25 31.226562 -0.429688 29.25 0.140625 C 27.269531 0.722656 24.953125 1.015625 22.296875 1.015625 Z M 22.296875 1.015625 "/></g></g></g><g fill="#243010" fill-opacity="1"><g transform="translate(711.050812, 674.108726)"><g><path d="M 19.90625 1.015625 C 17.351562 1.015625 15.035156 0.769531 12.953125 0.28125 C 10.878906 -0.195312 9.09375 -0.90625 7.59375 -1.84375 C 6.101562 -2.789062 4.898438 -3.925781 3.984375 -5.25 C 3.066406 -6.570312 2.488281 -8.054688 2.25 -9.703125 L 10.28125 -12.75 C 10.476562 -11.6875 11 -10.679688 11.84375 -9.734375 C 12.6875 -8.796875 13.832031 -8.046875 15.28125 -7.484375 C 16.726562 -6.929688 18.488281 -6.65625 20.5625 -6.65625 C 22.738281 -6.65625 24.425781 -6.976562 25.625 -7.625 C 26.832031 -8.28125 27.4375 -9.210938 27.4375 -10.421875 C 27.4375 -11.335938 27.097656 -12.0625 26.421875 -12.59375 C 25.753906 -13.125 24.78125 -13.582031 23.5 -13.96875 C 22.21875 -14.351562 20.660156 -14.71875 18.828125 -15.0625 C 16.992188 -15.5 15.144531 -15.96875 13.28125 -16.46875 C 11.425781 -16.976562 9.710938 -17.664062 8.140625 -18.53125 C 6.578125 -19.40625 5.3125 -20.539062 4.34375 -21.9375 C 3.375 -23.332031 2.890625 -25.117188 2.890625 -27.296875 C 2.890625 -29.660156 3.515625 -31.710938 4.765625 -33.453125 C 6.023438 -35.191406 7.875 -36.554688 10.3125 -37.546875 C 12.75 -38.535156 15.679688 -39.03125 19.109375 -39.03125 C 22.253906 -39.03125 25.007812 -38.609375 27.375 -37.765625 C 29.738281 -36.921875 31.664062 -35.6875 33.15625 -34.0625 C 34.65625 -32.445312 35.644531 -30.503906 36.125 -28.234375 L 27.65625 -25.5625 C 27.46875 -26.769531 27.007812 -27.816406 26.28125 -28.703125 C 25.5625 -29.597656 24.582031 -30.265625 23.34375 -30.703125 C 22.113281 -31.140625 20.679688 -31.359375 19.046875 -31.359375 C 17.015625 -31.359375 15.429688 -31.019531 14.296875 -30.34375 C 13.160156 -29.664062 12.59375 -28.769531 12.59375 -27.65625 C 12.59375 -26.738281 12.96875 -25.988281 13.71875 -25.40625 C 14.46875 -24.832031 15.503906 -24.363281 16.828125 -24 C 18.160156 -23.632812 19.742188 -23.257812 21.578125 -22.875 C 23.503906 -22.488281 25.375 -22.039062 27.1875 -21.53125 C 29 -21.03125 30.648438 -20.367188 32.140625 -19.546875 C 33.640625 -18.722656 34.835938 -17.632812 35.734375 -16.28125 C 36.628906 -14.9375 37.078125 -13.175781 37.078125 -11 C 37.078125 -8.488281 36.398438 -6.335938 35.046875 -4.546875 C 33.691406 -2.765625 31.734375 -1.390625 29.171875 -0.421875 C 26.617188 0.535156 23.53125 1.015625 19.90625 1.015625 Z M 19.90625 1.015625 "/></g></g></g><g fill="#243010" fill-opacity="1"><g transform="translate(750.21221, 674.108726)"><g><path d="M 0.21875 9.484375 C 1.082031 7.265625 1.695312 5.203125 2.0625 3.296875 C 2.425781 1.390625 2.644531 -0.539062 2.71875 -2.5 C 2.789062 -4.457031 2.828125 -6.566406 2.828125 -8.828125 L 12.375 -8.828125 C 12.375 -5.597656 12.171875 -2.820312 11.765625 -0.5 C 11.359375 1.8125 10.835938 3.773438 10.203125 5.390625 C 9.578125 7.003906 8.925781 8.367188 8.25 9.484375 Z M 0.21875 9.484375 "/></g></g></g><g fill="#243010" fill-opacity="1"><g transform="translate(764.255282, 674.108726)"><g/></g></g><g fill="#243010" fill-opacity="1"><g transform="translate(780.759554, 674.108726)"><g><path d="M 1.734375 14.34375 C 1.398438 14.34375 1.0625 14.328125 0.71875 14.296875 C 0.382812 14.273438 0.0234375 14.21875 -0.359375 14.125 L -1.15625 5.21875 C 1.007812 5.21875 2.5625 4.863281 3.5 4.15625 C 4.445312 3.457031 4.921875 2.023438 4.921875 -0.140625 L 4.921875 -38.015625 L 15.34375 -38.015625 L 15.34375 0.140625 C 15.34375 2.648438 15.050781 4.796875 14.46875 6.578125 C 13.894531 8.367188 13.03125 9.84375 11.875 11 C 10.71875 12.164062 9.289062 13.015625 7.59375 13.546875 C 5.90625 14.078125 3.953125 14.34375 1.734375 14.34375 Z M 10.140625 -43.515625 C 8.109375 -43.515625 6.550781 -43.945312 5.46875 -44.8125 C 4.382812 -45.6875 3.84375 -46.921875 3.84375 -48.515625 C 3.84375 -50.203125 4.382812 -51.476562 5.46875 -52.34375 C 6.550781 -53.21875 8.109375 -53.65625 10.140625 -53.65625 C 12.210938 -53.65625 13.789062 -53.21875 14.875 -52.34375 C 15.96875 -51.476562 16.515625 -50.203125 16.515625 -48.515625 C 16.515625 -46.921875 15.96875 -45.6875 14.875 -44.8125 C 13.789062 -43.945312 12.210938 -43.515625 10.140625 -43.515625 Z M 10.140625 -43.515625 "/></g></g></g><g fill="#243010" fill-opacity="1"><g transform="translate(800.738375, 674.108726)"><g><path d="M 17.375 1.015625 C 15.488281 1.015625 13.820312 0.75 12.375 0.21875 C 10.925781 -0.3125 9.679688 -1.09375 8.640625 -2.125 C 7.609375 -3.164062 6.753906 -4.421875 6.078125 -5.890625 C 5.398438 -7.367188 4.894531 -9.0625 4.5625 -10.96875 C 4.226562 -12.875 4.0625 -14.988281 4.0625 -17.3125 L 4.0625 -38.015625 L 14.546875 -38.015625 L 14.546875 -19.625 C 14.546875 -18.5625 14.582031 -17.351562 14.65625 -16 C 14.726562 -14.644531 14.96875 -13.328125 15.375 -12.046875 C 15.789062 -10.773438 16.457031 -9.726562 17.375 -8.90625 C 18.289062 -8.082031 19.570312 -7.671875 21.21875 -7.671875 C 22.570312 -7.671875 23.742188 -7.992188 24.734375 -8.640625 C 25.722656 -9.296875 26.578125 -10.238281 27.296875 -11.46875 C 28.023438 -12.707031 28.566406 -14.15625 28.921875 -15.8125 C 29.285156 -17.476562 29.492188 -19.300781 29.546875 -21.28125 L 29.546875 -38.015625 L 39.96875 -38.015625 L 39.96875 0 L 31.5 0 L 31.5 -12.171875 L 30.1875 -12.171875 C 29.5625 -9.078125 28.691406 -6.5625 27.578125 -4.625 C 26.472656 -2.695312 25.085938 -1.273438 23.421875 -0.359375 C 21.753906 0.554688 19.738281 1.015625 17.375 1.015625 Z M 17.375 1.015625 "/></g></g></g><g fill="#243010" fill-opacity="1"><g transform="translate(845.32879, 674.108726)"><g><path d="M 19.90625 1.015625 C 17.351562 1.015625 15.035156 0.769531 12.953125 0.28125 C 10.878906 -0.195312 9.09375 -0.90625 7.59375 -1.84375 C 6.101562 -2.789062 4.898438 -3.925781 3.984375 -5.25 C 3.066406 -6.570312 2.488281 -8.054688 2.25 -9.703125 L 10.28125 -12.75 C 10.476562 -11.6875 11 -10.679688 11.84375 -9.734375 C 12.6875 -8.796875 13.832031 -8.046875 15.28125 -7.484375 C 16.726562 -6.929688 18.488281 -6.65625 20.5625 -6.65625 C 22.738281 -6.65625 24.425781 -6.976562 25.625 -7.625 C 26.832031 -8.28125 27.4375 -9.210938 27.4375 -10.421875 C 27.4375 -11.335938 27.097656 -12.0625 26.421875 -12.59375 C 25.753906 -13.125 24.78125 -13.582031 23.5 -13.96875 C 22.21875 -14.351562 20.660156 -14.71875 18.828125 -15.0625 C 16.992188 -15.5 15.144531 -15.96875 13.28125 -16.46875 C 11.425781 -16.976562 9.710938 -17.664062 8.140625 -18.53125 C 6.578125 -19.40625 5.3125 -20.539062 4.34375 -21.9375 C 3.375 -23.332031 2.890625 -25.117188 2.890625 -27.296875 C 2.890625 -29.660156 3.515625 -31.710938 4.765625 -33.453125 C 6.023438 -35.191406 7.875 -36.554688 10.3125 -37.546875 C 12.75 -38.535156 15.679688 -39.03125 19.109375 -39.03125 C 22.253906 -39.03125 25.007812 -38.609375 27.375 -37.765625 C 29.738281 -36.921875 31.664062 -35.6875 33.15625 -34.0625 C 34.65625 -32.445312 35.644531 -30.503906 36.125 -28.234375 L 27.65625 -25.5625 C 27.46875 -26.769531 27.007812 -27.816406 26.28125 -28.703125 C 25.5625 -29.597656 24.582031 -30.265625 23.34375 -30.703125 C 22.113281 -31.140625 20.679688 -31.359375 19.046875 -31.359375 C 17.015625 -31.359375 15.429688 -31.019531 14.296875 -30.34375 C 13.160156 -29.664062 12.59375 -28.769531 12.59375 -27.65625 C 12.59375 -26.738281 12.96875 -25.988281 13.71875 -25.40625 C 14.46875 -24.832031 15.503906 -24.363281 16.828125 -24 C 18.160156 -23.632812 19.742188 -23.257812 21.578125 -22.875 C 23.503906 -22.488281 25.375 -22.039062 27.1875 -21.53125 C 29 -21.03125 30.648438 -20.367188 32.140625 -19.546875 C 33.640625 -18.722656 34.835938 -17.632812 35.734375 -16.28125 C 36.628906 -14.9375 37.078125 -13.175781 37.078125 -11 C 37.078125 -8.488281 36.398438 -6.335938 35.046875 -4.546875 C 33.691406 -2.765625 31.734375 -1.390625 29.171875 -0.421875 C 26.617188 0.535156 23.53125 1.015625 19.90625 1.015625 Z M 19.90625 1.015625 "/></g></g></g><g fill="#243010" fill-opacity="1"><g transform="translate(884.490188, 674.108726)"><g><path d="M 18.828125 0.875 C 16.753906 0.875 14.941406 0.609375 13.390625 0.078125 C 11.847656 -0.453125 10.554688 -1.285156 9.515625 -2.421875 C 8.484375 -3.554688 7.703125 -5.015625 7.171875 -6.796875 C 6.640625 -8.585938 6.375 -10.710938 6.375 -13.171875 L 6.375 -29.828125 L 0.9375 -29.828125 L 1.15625 -37.875 L 4.640625 -37.875 C 6.222656 -37.914062 7.398438 -38.191406 8.171875 -38.703125 C 8.953125 -39.210938 9.414062 -40.117188 9.5625 -41.421875 L 10.421875 -46.484375 L 16.359375 -46.484375 L 16.359375 -38.015625 L 25.921875 -38.015625 L 25.921875 -29.546875 L 16.359375 -29.546875 L 16.359375 -13.6875 C 16.359375 -11.707031 16.84375 -10.378906 17.8125 -9.703125 C 18.78125 -9.023438 19.960938 -8.6875 21.359375 -8.6875 C 22.222656 -8.6875 23.085938 -8.796875 23.953125 -9.015625 C 24.828125 -9.234375 25.582031 -9.535156 26.21875 -9.921875 L 26.21875 -0.21875 C 24.71875 0.21875 23.335938 0.507812 22.078125 0.65625 C 20.828125 0.800781 19.742188 0.875 18.828125 0.875 Z M 18.828125 0.875 "/></g></g></g><g fill="#243010" fill-opacity="1"><g transform="translate(913.010716, 674.108726)"><g/></g></g><g fill="#243010" fill-opacity="1"><g transform="translate(929.514988, 674.108726)"><g><path d="M 7.609375 0 L 7.609375 -24.328125 L 1.59375 -24.328125 L 1.59375 -32 L 11.875 -31.5 L 11.875 -32.796875 C 10.09375 -33.179688 8.644531 -33.804688 7.53125 -34.671875 C 6.414062 -35.546875 5.601562 -36.585938 5.09375 -37.796875 C 4.59375 -39.003906 4.34375 -40.285156 4.34375 -41.640625 C 4.34375 -43.710938 4.875 -45.507812 5.9375 -47.03125 C 7 -48.550781 8.503906 -49.734375 10.453125 -50.578125 C 12.410156 -51.421875 14.671875 -51.84375 17.234375 -51.84375 C 19.453125 -51.84375 21.46875 -51.5625 23.28125 -51 C 25.09375 -50.445312 26.550781 -49.765625 27.65625 -48.953125 L 27 -39.46875 C 25.84375 -40.332031 24.539062 -41.015625 23.09375 -41.515625 C 21.644531 -42.023438 20.269531 -42.28125 18.96875 -42.28125 C 17.570312 -42.28125 16.390625 -41.894531 15.421875 -41.125 C 14.453125 -40.351562 13.96875 -39.125 13.96875 -37.4375 C 13.96875 -36.226562 14.222656 -35.285156 14.734375 -34.609375 C 15.242188 -33.929688 15.882812 -33.421875 16.65625 -33.078125 C 17.425781 -32.742188 18.195312 -32.53125 18.96875 -32.4375 L 27.515625 -32.4375 L 27.515625 -24.328125 L 17.734375 -24.328125 L 17.734375 0 Z M 7.609375 0 "/></g></g></g><g fill="#243010" fill-opacity="1"><g transform="translate(958.180272, 674.108726)"><g><path d="M 21.9375 1.015625 C 18.125 1.015625 14.769531 0.253906 11.875 -1.265625 C 8.976562 -2.785156 6.707031 -5.03125 5.0625 -8 C 3.425781 -10.96875 2.609375 -14.671875 2.609375 -19.109375 C 2.609375 -23.554688 3.441406 -27.25 5.109375 -30.1875 C 6.773438 -33.132812 9.054688 -35.34375 11.953125 -36.8125 C 14.847656 -38.289062 18.148438 -39.03125 21.859375 -39.03125 C 25.679688 -39.03125 29.039062 -38.28125 31.9375 -36.78125 C 34.832031 -35.28125 37.109375 -33.046875 38.765625 -30.078125 C 40.429688 -27.109375 41.265625 -23.40625 41.265625 -18.96875 C 41.265625 -14.4375 40.421875 -10.695312 38.734375 -7.75 C 37.046875 -4.800781 34.726562 -2.601562 31.78125 -1.15625 C 28.84375 0.289062 25.5625 1.015625 21.9375 1.015625 Z M 22.234375 -6.734375 C 23.390625 -6.734375 24.472656 -6.925781 25.484375 -7.3125 C 26.492188 -7.695312 27.394531 -8.335938 28.1875 -9.234375 C 28.988281 -10.128906 29.617188 -11.335938 30.078125 -12.859375 C 30.535156 -14.378906 30.765625 -16.222656 30.765625 -18.390625 C 30.765625 -20.703125 30.507812 -22.65625 30 -24.25 C 29.5 -25.84375 28.828125 -27.132812 27.984375 -28.125 C 27.140625 -29.113281 26.160156 -29.828125 25.046875 -30.265625 C 23.941406 -30.703125 22.785156 -30.921875 21.578125 -30.921875 C 20.460938 -30.921875 19.382812 -30.726562 18.34375 -30.34375 C 17.3125 -29.957031 16.410156 -29.316406 15.640625 -28.421875 C 14.867188 -27.523438 14.238281 -26.328125 13.75 -24.828125 C 13.269531 -23.335938 13.03125 -21.484375 13.03125 -19.265625 C 13.03125 -16.941406 13.269531 -14.984375 13.75 -13.390625 C 14.238281 -11.796875 14.914062 -10.503906 15.78125 -9.515625 C 16.65625 -8.523438 17.644531 -7.8125 18.75 -7.375 C 19.863281 -6.945312 21.023438 -6.734375 22.234375 -6.734375 Z M 22.234375 -6.734375 "/></g></g></g><g fill="#243010" fill-opacity="1"><g transform="translate(1002.046849, 674.108726)"><g><path d="M 4.640625 0 L 4.640625 -38.015625 L 13.328125 -38.015625 L 13.25 -24.828125 L 14.625 -24.828125 C 15.007812 -28.117188 15.660156 -30.800781 16.578125 -32.875 C 17.492188 -34.945312 18.785156 -36.460938 20.453125 -37.421875 C 22.117188 -38.390625 24.179688 -38.875 26.640625 -38.875 C 27.128906 -38.875 27.640625 -38.847656 28.171875 -38.796875 C 28.703125 -38.753906 29.300781 -38.660156 29.96875 -38.515625 L 29.609375 -27.4375 C 28.796875 -27.78125 27.960938 -28.023438 27.109375 -28.171875 C 26.265625 -28.316406 25.484375 -28.390625 24.765625 -28.390625 C 22.929688 -28.390625 21.335938 -27.953125 19.984375 -27.078125 C 18.628906 -26.210938 17.550781 -24.957031 16.75 -23.3125 C 15.957031 -21.675781 15.394531 -19.648438 15.0625 -17.234375 L 15.0625 0 Z M 4.640625 0 "/></g></g></g><g fill="#243010" fill-opacity="1"><g transform="translate(1033.173274, 674.108726)"><g/></g></g><g fill="#243010" fill-opacity="1"><g transform="translate(1049.677546, 674.108726)"><g><path d="M 18.96875 12.953125 C 17.039062 12.953125 15.085938 12.785156 13.109375 12.453125 C 11.128906 12.117188 9.253906 11.585938 7.484375 10.859375 C 5.722656 10.140625 4.242188 9.195312 3.046875 8.03125 L 5.9375 -1.015625 C 7.476562 0.628906 9.394531 1.835938 11.6875 2.609375 C 13.988281 3.378906 16.25 3.765625 18.46875 3.765625 C 20.832031 3.765625 22.773438 3.363281 24.296875 2.5625 C 25.816406 1.769531 27 0.6875 27.84375 -0.6875 C 28.6875 -2.0625 29.300781 -3.65625 29.6875 -5.46875 C 30.070312 -7.28125 30.289062 -9.195312 30.34375 -11.21875 L 30.703125 -17.15625 L 29.1875 -17.15625 C 28.75 -13.925781 27.984375 -11.296875 26.890625 -9.265625 C 25.804688 -7.242188 24.429688 -5.757812 22.765625 -4.8125 C 21.109375 -3.875 19.144531 -3.40625 16.875 -3.40625 C 14.40625 -3.40625 12.363281 -3.898438 10.75 -4.890625 C 9.132812 -5.878906 7.890625 -7.15625 7.015625 -8.71875 C 6.148438 -10.289062 5.507812 -11.945312 5.09375 -13.6875 C 4.6875 -15.425781 4.445312 -17.066406 4.375 -18.609375 C 4.300781 -20.148438 4.265625 -21.359375 4.265625 -22.234375 L 4.265625 -38.015625 L 14.703125 -38.015625 L 14.703125 -25.203125 C 14.703125 -24.234375 14.722656 -23.15625 14.765625 -21.96875 C 14.816406 -20.789062 14.925781 -19.617188 15.09375 -18.453125 C 15.257812 -17.296875 15.570312 -16.222656 16.03125 -15.234375 C 16.488281 -14.242188 17.101562 -13.457031 17.875 -12.875 C 18.65625 -12.300781 19.648438 -12.015625 20.859375 -12.015625 C 22.453125 -12.015625 23.71875 -12.5 24.65625 -13.46875 C 25.59375 -14.4375 26.328125 -15.644531 26.859375 -17.09375 C 27.390625 -18.539062 27.75 -20.035156 27.9375 -21.578125 C 28.132812 -23.117188 28.257812 -24.445312 28.3125 -25.5625 L 28.3125 -38.015625 L 38.734375 -38.015625 L 38.734375 -10.78125 C 38.734375 -9.4375 38.660156 -7.929688 38.515625 -6.265625 C 38.367188 -4.597656 38.09375 -2.867188 37.6875 -1.078125 C 37.28125 0.703125 36.628906 2.425781 35.734375 4.09375 C 34.835938 5.757812 33.664062 7.265625 32.21875 8.609375 C 30.769531 9.960938 28.957031 11.023438 26.78125 11.796875 C 24.613281 12.566406 22.007812 12.953125 18.96875 12.953125 Z M 18.96875 12.953125 "/></g></g></g><g fill="#243010" fill-opacity="1"><g transform="translate(1092.892635, 674.108726)"><g><path d="M 21.9375 1.015625 C 18.125 1.015625 14.769531 0.253906 11.875 -1.265625 C 8.976562 -2.785156 6.707031 -5.03125 5.0625 -8 C 3.425781 -10.96875 2.609375 -14.671875 2.609375 -19.109375 C 2.609375 -23.554688 3.441406 -27.25 5.109375 -30.1875 C 6.773438 -33.132812 9.054688 -35.34375 11.953125 -36.8125 C 14.847656 -38.289062 18.148438 -39.03125 21.859375 -39.03125 C 25.679688 -39.03125 29.039062 -38.28125 31.9375 -36.78125 C 34.832031 -35.28125 37.109375 -33.046875 38.765625 -30.078125 C 40.429688 -27.109375 41.265625 -23.40625 41.265625 -18.96875 C 41.265625 -14.4375 40.421875 -10.695312 38.734375 -7.75 C 37.046875 -4.800781 34.726562 -2.601562 31.78125 -1.15625 C 28.84375 0.289062 25.5625 1.015625 21.9375 1.015625 Z M 22.234375 -6.734375 C 23.390625 -6.734375 24.472656 -6.925781 25.484375 -7.3125 C 26.492188 -7.695312 27.394531 -8.335938 28.1875 -9.234375 C 28.988281 -10.128906 29.617188 -11.335938 30.078125 -12.859375 C 30.535156 -14.378906 30.765625 -16.222656 30.765625 -18.390625 C 30.765625 -20.703125 30.507812 -22.65625 30 -24.25 C 29.5 -25.84375 28.828125 -27.132812 27.984375 -28.125 C 27.140625 -29.113281 26.160156 -29.828125 25.046875 -30.265625 C 23.941406 -30.703125 22.785156 -30.921875 21.578125 -30.921875 C 20.460938 -30.921875 19.382812 -30.726562 18.34375 -30.34375 C 17.3125 -29.957031 16.410156 -29.316406 15.640625 -28.421875 C 14.867188 -27.523438 14.238281 -26.328125 13.75 -24.828125 C 13.269531 -23.335938 13.03125 -21.484375 13.03125 -19.265625 C 13.03125 -16.941406 13.269531 -14.984375 13.75 -13.390625 C 14.238281 -11.796875 14.914062 -10.503906 15.78125 -9.515625 C 16.65625 -8.523438 17.644531 -7.8125 18.75 -7.375 C 19.863281 -6.945312 21.023438 -6.734375 22.234375 -6.734375 Z M 22.234375 -6.734375 "/></g></g></g><g fill="#243010" fill-opacity="1"><g transform="translate(1136.759212, 674.108726)"><g><path d="M 17.375 1.015625 C 15.488281 1.015625 13.820312 0.75 12.375 0.21875 C 10.925781 -0.3125 9.679688 -1.09375 8.640625 -2.125 C 7.609375 -3.164062 6.753906 -4.421875 6.078125 -5.890625 C 5.398438 -7.367188 4.894531 -9.0625 4.5625 -10.96875 C 4.226562 -12.875 4.0625 -14.988281 4.0625 -17.3125 L 4.0625 -38.015625 L 14.546875 -38.015625 L 14.546875 -19.625 C 14.546875 -18.5625 14.582031 -17.351562 14.65625 -16 C 14.726562 -14.644531 14.96875 -13.328125 15.375 -12.046875 C 15.789062 -10.773438 16.457031 -9.726562 17.375 -8.90625 C 18.289062 -8.082031 19.570312 -7.671875 21.21875 -7.671875 C 22.570312 -7.671875 23.742188 -7.992188 24.734375 -8.640625 C 25.722656 -9.296875 26.578125 -10.238281 27.296875 -11.46875 C 28.023438 -12.707031 28.566406 -14.15625 28.921875 -15.8125 C 29.285156 -17.476562 29.492188 -19.300781 29.546875 -21.28125 L 29.546875 -38.015625 L 39.96875 -38.015625 L 39.96875 0 L 31.5 0 L 31.5 -12.171875 L 30.1875 -12.171875 C 29.5625 -9.078125 28.691406 -6.5625 27.578125 -4.625 C 26.472656 -2.695312 25.085938 -1.273438 23.421875 -0.359375 C 21.753906 0.554688 19.738281 1.015625 17.375 1.015625 Z M 17.375 1.015625 "/></g></g></g><g fill="#243010" fill-opacity="1"><g transform="translate(1181.349627, 674.108726)"><g><path d="M 8.328125 0.9375 C 6.054688 0.9375 4.363281 0.457031 3.25 -0.5 C 2.144531 -1.46875 1.59375 -2.96875 1.59375 -5 C 1.59375 -7.070312 2.144531 -8.585938 3.25 -9.546875 C 4.363281 -10.515625 6.054688 -11 8.328125 -11 C 10.640625 -11 12.363281 -10.515625 13.5 -9.546875 C 14.632812 -8.585938 15.203125 -7.070312 15.203125 -5 C 15.203125 -1.039062 12.910156 0.9375 8.328125 0.9375 Z M 8.328125 0.9375 "/></g></g></g></svg>